PathFileType	4	(X/Y/Z)	C:/Users/beibeiliu/ov580/test_trc\sequence.33_training_dense_left.trc
DataRate	CameraRate	NumFrames	NumMarkers	Units	OrigDataRate	OrigDataStartFrame	OrigNumFrames
120	120	16	19	mm	120	29	169
Frame#	Time	ThumbCMC			ThumbMCP			ThumbIP			ThumbTip			IndexMCP			IndexPIP			IndexTip			MiddleMCP			MiddlePIP			MiddleTip			RingMCP			RingPIP			RingTip			PinkyMCP			PinkyPIP			PinkyTip			BackHand1			BackHand2			BackHand3	
		X0	Y0	Z0	X1	Y1	Z1	X2	Y2	Z2	X3	Y3	Z3	X4	Y4	Z4	X5	Y5	Z5	X6	Y6	Z6	X7	Y7	Z7	X8	Y8	Z8	X9	Y9	Z9	X10	Y10	Z10	X11	Y11	Z11	X12	Y12	Z12	X13	Y13	Z13	X14	Y14	Z14	X15	Y15	Z15	X16	Y16	Z16	X17	Y17	Z17	X18	Y18	Z18	
28	0.233333	-192.916	85.8006	26.1383	-170.782	94.9095	13.9021	-157.543	104.22	-5.39507	-145.766	111.412	-18.6009	-199.95	84.528	-36.8447	-198.545	89.883	-55.2829	-202.873	95.0448	-79.7047	-184.412	68.6206	-42.544	-168.709	75.6715	-65.3469	-153.308	78.7323	-80.3779	-164.236	53.345	-35.9938	-142.94	65.3507	-42.4901	-125.074	73.9535	-40.5668	-159.57	38.3783	-22.477	-139.172	49.8381	-20.5129	-124.262	63.6645	-13.9891	-198.681	35.2495	-2.41018	-207.79	33.0149	28.7852	-213.396	58.0108	14.0692	
29	0.241667	-204.389	79.2653	27.8497	-187.166	93.4869	7.62975	-178.79	108.028	-9.69879	-168.364	115.08	-25.2978	-202.987	73.4018	-37.6957	-201.137	81.6334	-58.4038	-201.305	88.1796	-81.904	-179.046	62.7964	-43.6841	-162.211	76.6012	-57.4326	-140.191	92.0583	-67.7422	-162.065	56.4781	-29.5946	-142.883	73.1394	-28.9853	-126.873	85.8127	-20.1935	-156.646	44.4482	-17.1878	-139.891	61.8746	-12.5087	-134.898	78.7096	0.940573	-197.225	32.9589	2.94191	-203.5	28.6537	27.1264	-216.303	49.6993	13.4724	
30	0.25	-210.377	65.8631	22.0423	-201.361	86.6933	1.13765	-192.716	92.1025	-15.6757	-187.148	100.908	-35.6563	-207.994	63.5292	-43.8619	-200.908	66.0715	-59.509	-197.019	71.691	-86.0656	-179.388	54.997	-39.8965	-160.512	74.06	-52.3795	-141.702	92.7383	-51.441	-161.141	54.1013	-28.7652	-145.073	74.7111	-22.3591	-142.698	93.889	-7.67189	-152.706	43.9768	-15.1359	-143.858	61.9419	-8.68025	-146.767	82.2066	10.5428	-190.184	19.9228	0.68324	-198.375	17.8444	29.4565	-214.69	35.1921	11.8337	
31	0.258333	-215.14	56.5845	22.9443	-209.529	76.6263	-1.25498	-203.936	79.3143	-20.1255	-202.793	89.8317	-39.5126	-206.903	47.5251	-44.8536	-204.53	55.0361	-62.7521	-198.581	62.4796	-86.0358	-180.676	50.4431	-43.5273	-165.506	72.7526	-50.0711	-152.569	97.6325	-39.8945	-161.959	46.4144	-26.9177	-154.538	70.2559	-23.8439	-155.172	89.5219	-3.54762	-151.697	38.0674	-13.9411	-146.891	63.5366	-6.66233	-157.311	75.1744	9.00094	-187.035	13.4221	3.54844	-195.208	13.0647	32.1135	-215.158	28.0253	11.6374	
32	0.266667	-218.327	48.1528	20.2724	-216.621	64.3173	-2.544	-214.615	70.4865	-25.1373	-210.568	73.2362	-44.4267	-211.043	35.8593	-40.9755	-203.586	42.3468	-65.9817	-195.225	53.7562	-86.7937	-181.824	39.2882	-42.1102	-169.973	65.2755	-52.798	-167.568	89.8126	-32.5592	-166.38	42.5692	-30.9994	-159.213	67.8573	-28.1621	-166.342	82.5084	-5.92625	-150.553	39.457	-15.0987	-156.305	63.5774	-11.4026	-171.613	69.2902	9.28362	-181.623	9.28239	4.25645	-190.681	9.81641	33.3682	-207.085	17.8242	14.4272	
33	0.275	-225.43	40.7731	20.2217	-226.439	53.9193	-5.9587	-223.452	56.8919	-31.392	-219.424	60.5529	-46.7499	-206.313	25.1586	-41.5209	-200.809	31.2596	-67.2508	-194.502	51.3912	-84.762	-183.823	33.5664	-46.1844	-175.06	58.4278	-56.328	-178.497	80.6776	-35.1693	-167.807	40.2656	-34.7697	-165.356	64.7769	-33.5682	-176.032	76.251	-8.65274	-151.317	42.8484	-19.3492	-161.297	63.454	-15.6588	-175.122	69.0637	4.0706	-181.963	8.82612	4.87622	-187.287	7.36408	30.0107	-206.526	10.8752	13.0764	
34	0.283333	-226.43	35.5419	22.5015	-234.032	48.2817	-2.94514	-230.459	49.8559	-25.4182	-222.718	52.2513	-46.8497	-208.303	22.0936	-39.2048	-198.967	31.4346	-68.0694	-193.866	50.7368	-78.8776	-184.089	28.2082	-46.7085	-176.042	54.8239	-57.7463	-185.118	75.2377	-33.9691	-166.282	34.5124	-33.9706	-170	62.7674	-39.5543	-179.204	73.121	-14.1421	-152.969	37.4248	-16.0268	-160.988	63.5858	-21.5144	-178.727	68.5222	-3.89088	-181.469	9.94703	7.51914	-186.594	8.27237	36.0349	-204.908	10.1061	14.7069	
35	0.291667	-230.523	35.7735	28.8674	-237.928	42.0041	0.0259187	-233.887	44.9894	-19.9196	-224.046	50.7145	-40.7866	-210.001	22.5624	-36.4149	-203.164	33.7956	-64.926	-196.681	55.9472	-71.2524	-181.523	26.2488	-41.5872	-178.309	50.3526	-58.0611	-185.817	74.9192	-40.0299	-166.89	31.238	-30.4301	-167.74	57.9972	-42.4052	-177.542	72.4594	-23.2029	-153.01	35.5638	-17.8135	-157.392	59.0969	-26.8019	-169.578	72.3713	-12.6843	-179.883	11.6796	10.3675	-185.946	8.8247	37.8974	-206.823	13.7995	20.2026	
36	0.3	-233.005	35.0576	34.099	-241.58	39.8068	7.39587	-239.888	43.8295	-13.2124	-233.163	52.3468	-38.0429	-207.68	25.9293	-30.6022	-201.08	31.6541	-55.5974	-195.625	59.2655	-63.5808	-186.75	25.6512	-34.1751	-180.617	42.5489	-57.6913	-179.82	73.3098	-45.4309	-170.785	27.9283	-22.6338	-167.059	44.6723	-43.4305	-176.567	72.2835	-30.5505	-157.398	31.9279	-11.8315	-155.267	46.9758	-28.4859	-162.908	71.378	-23.4133	-180.274	16.6554	18.7102	-188.046	11.5208	40.53	-208.19	16.3201	23.7577	
37	0.308333	-232.622	37.3144	36.7945	-245.599	40.4414	11.9747	-246.486	45.695	-6.90811	-241.76	54.6454	-31.5071	-210.446	28.3003	-29.6827	-204.7	35.6253	-54.252	-202.627	62.9009	-61.708	-189.277	26.7758	-27.449	-181.209	37.1106	-55.1625	-177.844	68.1441	-54.6464	-173.829	26.2293	-16.7895	-171.517	37.1374	-45.2037	-169.129	66.7157	-45.6669	-160.384	30.7377	0.432939	-150.983	35.4383	-23.6057	-154.98	54.0571	-37.3386	-187.913	21.5114	22.4771	-187.149	14.6735	44.9521	-214.199	19.7612	24.4506	
38	0.316667	-233.743	41.098	40.3998	-253.708	45.6753	18.9925	-256.371	49.2605	-4.00067	-250.885	58.3844	-22.7964	-219.091	33.1121	-22.6035	-215.669	36.383	-52.7165	-205.98	60.1919	-64.0301	-201.181	27.0627	-25.6826	-189.913	29.3482	-54.5573	-181.03	57.7572	-68.8706	-183.574	25.9805	-15.8366	-176.783	25.8967	-41.6683	-171.521	44.8379	-59.3	-166.168	31.0444	-0.556394	-154.104	27.398	-18.5271	-146.404	38.4658	-41.8263	-188.46	26.1428	23.1717	-195.971	19.395	44.6827	-218.866	23.1637	27.397	
39	0.325	-236.749	47.9252	42.9958	-253.159	53.6462	25.2813	-263.108	56.187	-0.294586	-264.637	62.777	-23.7756	-226.833	35.6715	-24.7967	-226.037	35.3082	-47.5371	-217.941	55.8247	-69.3989	-205.602	25.8417	-25.5933	-201.281	24.0569	-53.29	-191.633	34.437	-74.762	-192.244	26.9022	-13.9014	-185.396	19.7937	-38.812	-177.438	23.787	-63.2056	-171.702	28.2186	-0.551766	-163.147	20.955	-16.707	-154.046	18.5346	-37.2711	-198.367	26.9117	22.7291	-198.819	22.8038	46.1192	-225.312	29.7615	31.6377	
40	0.333333	-245.811	57.2208	45.0476	-258.61	61.9332	26.3938	-271.005	63.7368	6.74113	-279.882	68.6188	-12.5619	-236.546	41.015	-22.8684	-239.027	42.1032	-46.5683	-231.937	49.8392	-69.2756	-217.698	28.9821	-23.769	-217.117	22.3937	-47.7711	-214.484	23.9453	-75.6929	-200.301	25.2315	-12.5726	-201.005	15.4566	-33.8235	-198.874	11.0092	-59.5711	-185.123	27.4734	2.04768	-177.225	14.5237	-11.4555	-176.418	2.05812	-28.2693	-202.62	27.4326	20.8164	-207.434	24.6876	47.6962	-230.08	33.1454	33.2878	
41	0.341667	-248.162	63.4175	49.6964	-257.763	71.6286	33.3026	-275.907	74.3979	11.0871	-284.18	76.8133	-5.1245	-247.588	50.8903	-17.9581	-250.834	50.1733	-40.0542	-247.038	52.798	-64.4789	-230.827	30.2055	-22.3801	-234.522	24.0316	-44.7066	-231.096	17.2323	-70.2926	-213.288	22.7749	-9.75053	-220.221	14.7921	-30.3321	-223.109	6.2045	-51.621	-195.823	19.1506	4.46673	-197.26	6.9048	-9.20427	-199.599	-10.6055	-21.0583	-215.151	27.738	24.3095	-219.046	26.6199	49.6003	-239.818	39.4136	38.21	
42	0.35	-245.593	66.1097	49.9841	-260.175	78.0876	35.7176	-268.817	79.2604	11.7297	-278.055	85.5139	-1.07741	-253.855	58.1608	-15.3013	-254.184	60.0394	-41.2252	-252.908	63.6718	-65.8803	-241.816	33.164	-22.3773	-245.633	27.2942	-43.031	-251.753	23.2447	-69.7174	-226.337	20.8763	-8.76607	-233.598	10.0978	-29.1315	-242.761	4.97308	-47.2705	-210.522	12.565	6.37365	-218.095	1.56491	-5.60073	-227.775	-11.6095	-13.1728	-225.953	24.8704	29.292	-227.079	23.1199	53.4053	-245.024	40.8257	41.3448	
43	0.358333	-238.687	69.7458	54.8622	-245.229	82.0276	35.7898	-252.474	90.373	17.1042	-260.206	99.4709	-2.82437	-246.063	62.7099	-16.446	-246.067	71.6093	-35.255	-241.356	73.9361	-57.9376	-245.28	38.6775	-17.6885	-254.044	40.6865	-42.6418	-258.337	36.0197	-64.27	-241.072	22.3137	-10.2593	-248.887	18.0823	-24.9811	-260.035	11.4302	-44.3577	-230.068	9.50813	6.08885	-237.96	0.900085	-2.39162	-250.942	-5.9552	-6.54428	-237.611	24.4658	28.4786	-237.309	18.1339	55.1789	-248.54	46.325	44.9136	
